<svg width="170" height="128" viewBox="0 0 170 128" fill="none" xmlns="http://www.w3.org/2000/svg">
  <circle cx="86" cy="58" r="54" fill="#10C9E8"/><circle cx="118" cy="25" r="12" fill="#FFD748"/><path d="M108 36c4-10 18-10 22-1 12-4 18 11 7 17h-31c-8-4-6-14 2-16Z" fill="white"/>
  <path d="M27 111h133" stroke="#5A318E" stroke-width="5" stroke-linecap="round"/><path d="M42 67h96v44H42z" fill="#FFD348" stroke="#57317F" stroke-width="4"/><path d="M54 43h75l13 29H40l14-29Z" fill="#F13A4E" stroke="#57317F" stroke-width="4"/>
  <path d="M54 43l-3 29M69 43l-1 29M85 43v29M101 43l2 29M117 43l4 29" stroke="white" stroke-width="9"/><path d="M40 72c0 9 14 10 14 0 0 10 15 10 15 0 0 10 16 10 16 0 0 10 17 10 17 0 0 10 17 10 17 0 0 10 19 9 19 0" fill="#FA364B" stroke="#57317F" stroke-width="3"/>
  <rect x="52" y="82" width="31" height="29" fill="#22BDD8" stroke="#57317F" stroke-width="3"/><rect x="96" y="81" width="27" height="30" fill="#29A8E3" stroke="#57317F" stroke-width="3"/><circle cx="118" cy="96" r="2" fill="#57317F"/><rect x="59" y="89" width="17" height="12" fill="#F87857"/><path d="M17 92h21v7H17c-6 0-6-7 0-7Z" fill="#F13A4E" stroke="#57317F" stroke-width="3"/><path d="M140 83h12l5 28h-23l6-28Z" fill="#F13A4E" stroke="#57317F" stroke-width="3"/>
</svg>
